# xmcd
#
# Track frame offsets:
#	150
#	14745
#	50866
#	67217
#	139254
#	161543
#	196165
#
# Disc length: 2665 seconds
#
# Revision: 1
# Processed by: cddbd v1.5.2PL0 Copyright (c) Steve Scherf et al.
# Submitted via: audiograbber 1.83.01
#
DISCID=6b0a6707
DTITLE=Grateful Dead - 73-07-27 Grand Prix Racecourse, Watkins Glen NY
DYEAR=1900
DGENRE=
TTITLE0=Promised Land
TTITLE1=Sugaree
TTITLE2=Mexicali Blues
TTITLE3=Bird Song
TTITLE4=Big River
TTITLE5=Tennessee Jed
TTITLE6=Stage Banter
EXTD=
EXTT0=
EXTT1=
EXTT2=
EXTT3=
EXTT4=
EXTT5=
EXTT6=
PLAYORDER=
